<svg
  version="1.1"
  id="Layer_1"
  xmlns="http://www.w3.org/2000/svg"
  xmlns:xlink="http://www.w3.org/1999/xlink"
  viewBox="0 0 64 64"
  xml:space="preserve"
  width="200px"
  height="200px"
>
  <style type="text/css">
    .st0{fill:#2196F3;} /* Van body color */
    .st1{fill:#000000;} /* Van details color */
    .st2{fill:#FFC107;} /* Wireless signal color */
  </style>
  <g>
    <rect x="2" y="28" class="st0" width="60" height="18"/>
    <circle cx="14" cy="50" r="6" class="st1"/>
    <circle cx="50" cy="50" r="6" class="st1"/>
    <rect x="4" y="30" class="st1" width="8" height="12"/>
    <rect x="52" y="30" class="st1" width="8" height="12"/>
  </g>
  <g>
    <path class="st2" d="M32,4c15.4,0,28,12.6,28,28h-4C56,16.5,45.5,6,32,6S8,16.5,8,32H4C4,16.6,16.6,4,32,4z"/>
    <path class="st2" d="M32,14c9.9,0,18,8.1,18,18h-4c0-7.7-6.3-14-14-14s-14,6.3-14,14h-4C14,22.1,22.1,14,32,14z"/>
    <path class="st2" d="M32,24c4.4,0,8,3.6,8,8h-4c0-2.2-1.8-4-4-4s-4,1.8-4,4h-4C24,27.6,27.6,24,32,24z"/>
  </g>
</svg>
